<?xml version="1.0" encoding="utf-8" standalone="no"?>
<!DOCTYPE svg PUBLIC "-//W3C//DTD SVG 1.1//EN"
  "http://www.w3.org/Graphics/SVG/1.1/DTD/svg11.dtd">
<svg xmlns:xlink="http://www.w3.org/1999/xlink" width="864pt" height="720pt" viewBox="0 0 864 720" xmlns="http://www.w3.org/2000/svg" version="1.1">
 <metadata>
  <rdf:RDF xmlns:dc="http://purl.org/dc/elements/1.1/" xmlns:cc="http://creativecommons.org/ns#" xmlns:rdf="http://www.w3.org/1999/02/22-rdf-syntax-ns#">
   <cc:Work>
    <dc:type rdf:resource="http://purl.org/dc/dcmitype/StillImage"/>
    <dc:date>2024-06-14T12:56:13.472104</dc:date>
    <dc:format>image/svg+xml</dc:format>
    <dc:creator>
     <cc:Agent>
      <dc:title>Matplotlib v3.8.4, https://matplotlib.org/</dc:title>
     </cc:Agent>
    </dc:creator>
   </cc:Work>
  </rdf:RDF>
 </metadata>
 <defs>
  <style type="text/css">*{stroke-linejoin: round; stroke-linecap: butt}</style>
 </defs>
 <g id="figure_1">
  <g id="patch_1">
   <path d="M 0 720 
L 864 720 
L 864 0 
L 0 0 
z
" style="fill: #ffffff"/>
  </g>
  <g id="axes_1">
   <g id="patch_2">
    <path d="M 108 640.8 
L 777.6 640.8 
L 777.6 86.4 
L 108 86.4 
z
" style="fill: #ffffff"/>
   </g>
   <g id="PathCollection_1">
    <defs>
     <path id="ma78f723d2d" d="M 0 3 
C 0.795609 3 1.55874 2.683901 2.12132 2.12132 
C 2.683901 1.55874 3 0.795609 3 0 
C 3 -0.795609 2.683901 -1.55874 2.12132 -2.12132 
C 1.55874 -2.683901 0.795609 -3 0 -3 
C -0.795609 -3 -1.55874 -2.683901 -2.12132 -2.12132 
C -2.683901 -1.55874 -3 -0.795609 -3 0 
C -3 0.795609 -2.683901 1.55874 -2.12132 2.12132 
C -1.55874 2.683901 -0.795609 3 0 3 
z
" style="stroke: #ff0000"/>
    </defs>
    <g clip-path="url(#pb1d0761f7a)">
     <use xlink:href="#ma78f723d2d" x="181.916883" y="552.6" style="fill: #ff0000; stroke: #ff0000"/>
     <use xlink:href="#ma78f723d2d" x="268.877922" y="552.6" style="fill: #ff0000; stroke: #ff0000"/>
     <use xlink:href="#ma78f723d2d" x="355.838961" y="552.6" style="fill: #ff0000; stroke: #ff0000"/>
     <use xlink:href="#ma78f723d2d" x="442.8" y="552.6" style="fill: #ff0000; stroke: #ff0000"/>
     <use xlink:href="#ma78f723d2d" x="529.761039" y="552.6" style="fill: #ff0000; stroke: #ff0000"/>
     <use xlink:href="#ma78f723d2d" x="616.722078" y="552.6" style="fill: #ff0000; stroke: #ff0000"/>
     <use xlink:href="#ma78f723d2d" x="703.683117" y="552.6" style="fill: #ff0000; stroke: #ff0000"/>
     <use xlink:href="#ma78f723d2d" x="181.916883" y="426.6" style="fill: #ff0000; stroke: #ff0000"/>
     <use xlink:href="#ma78f723d2d" x="268.877922" y="426.6" style="fill: #ff0000; stroke: #ff0000"/>
     <use xlink:href="#ma78f723d2d" x="355.838961" y="426.6" style="fill: #ff0000; stroke: #ff0000"/>
     <use xlink:href="#ma78f723d2d" x="442.8" y="426.6" style="fill: #ff0000; stroke: #ff0000"/>
     <use xlink:href="#ma78f723d2d" x="529.761039" y="426.6" style="fill: #ff0000; stroke: #ff0000"/>
     <use xlink:href="#ma78f723d2d" x="616.722078" y="426.6" style="fill: #ff0000; stroke: #ff0000"/>
     <use xlink:href="#ma78f723d2d" x="703.683117" y="426.6" style="fill: #ff0000; stroke: #ff0000"/>
     <use xlink:href="#ma78f723d2d" x="181.916883" y="300.6" style="fill: #ff0000; stroke: #ff0000"/>
     <use xlink:href="#ma78f723d2d" x="268.877922" y="300.6" style="fill: #ff0000; stroke: #ff0000"/>
     <use xlink:href="#ma78f723d2d" x="355.838961" y="300.6" style="fill: #ff0000; stroke: #ff0000"/>
     <use xlink:href="#ma78f723d2d" x="442.8" y="300.6" style="fill: #ff0000; stroke: #ff0000"/>
     <use xlink:href="#ma78f723d2d" x="529.761039" y="300.6" style="fill: #ff0000; stroke: #ff0000"/>
     <use xlink:href="#ma78f723d2d" x="616.722078" y="300.6" style="fill: #ff0000; stroke: #ff0000"/>
     <use xlink:href="#ma78f723d2d" x="703.683117" y="300.6" style="fill: #ff0000; stroke: #ff0000"/>
     <use xlink:href="#ma78f723d2d" x="181.916883" y="174.6" style="fill: #ff0000; stroke: #ff0000"/>
     <use xlink:href="#ma78f723d2d" x="268.877922" y="174.6" style="fill: #ff0000; stroke: #ff0000"/>
     <use xlink:href="#ma78f723d2d" x="355.838961" y="174.6" style="fill: #ff0000; stroke: #ff0000"/>
     <use xlink:href="#ma78f723d2d" x="442.8" y="174.6" style="fill: #ff0000; stroke: #ff0000"/>
     <use xlink:href="#ma78f723d2d" x="529.761039" y="174.6" style="fill: #ff0000; stroke: #ff0000"/>
     <use xlink:href="#ma78f723d2d" x="616.722078" y="174.6" style="fill: #ff0000; stroke: #ff0000"/>
     <use xlink:href="#ma78f723d2d" x="703.683117" y="174.6" style="fill: #ff0000; stroke: #ff0000"/>
    </g>
   </g>
   <g id="PathCollection_2">
    <defs>
     <path id="m29d36270a6" d="M 0 3 
C 0.795609 3 1.55874 2.683901 2.12132 2.12132 
C 2.683901 1.55874 3 0.795609 3 0 
C 3 -0.795609 2.683901 -1.55874 2.12132 -2.12132 
C 1.55874 -2.683901 0.795609 -3 0 -3 
C -0.795609 -3 -1.55874 -2.683901 -2.12132 -2.12132 
C -2.683901 -1.55874 -3 -0.795609 -3 0 
C -3 0.795609 -2.683901 1.55874 -2.12132 2.12132 
C -1.55874 2.683901 -0.795609 3 0 3 
z
" style="stroke: #0000ff"/>
    </defs>
    <g clip-path="url(#pb1d0761f7a)">
     <use xlink:href="#m29d36270a6" x="138.436364" y="552.6" style="fill: #0000ff; stroke: #0000ff"/>
     <use xlink:href="#m29d36270a6" x="225.397403" y="552.6" style="fill: #0000ff; stroke: #0000ff"/>
     <use xlink:href="#m29d36270a6" x="312.358442" y="552.6" style="fill: #0000ff; stroke: #0000ff"/>
     <use xlink:href="#m29d36270a6" x="399.319481" y="552.6" style="fill: #0000ff; stroke: #0000ff"/>
     <use xlink:href="#m29d36270a6" x="486.280519" y="552.6" style="fill: #0000ff; stroke: #0000ff"/>
     <use xlink:href="#m29d36270a6" x="573.241558" y="552.6" style="fill: #0000ff; stroke: #0000ff"/>
     <use xlink:href="#m29d36270a6" x="660.202597" y="552.6" style="fill: #0000ff; stroke: #0000ff"/>
     <use xlink:href="#m29d36270a6" x="747.163636" y="552.6" style="fill: #0000ff; stroke: #0000ff"/>
     <use xlink:href="#m29d36270a6" x="138.436364" y="426.6" style="fill: #0000ff; stroke: #0000ff"/>
     <use xlink:href="#m29d36270a6" x="225.397403" y="426.6" style="fill: #0000ff; stroke: #0000ff"/>
     <use xlink:href="#m29d36270a6" x="312.358442" y="426.6" style="fill: #0000ff; stroke: #0000ff"/>
     <use xlink:href="#m29d36270a6" x="399.319481" y="426.6" style="fill: #0000ff; stroke: #0000ff"/>
     <use xlink:href="#m29d36270a6" x="486.280519" y="426.6" style="fill: #0000ff; stroke: #0000ff"/>
     <use xlink:href="#m29d36270a6" x="573.241558" y="426.6" style="fill: #0000ff; stroke: #0000ff"/>
     <use xlink:href="#m29d36270a6" x="660.202597" y="426.6" style="fill: #0000ff; stroke: #0000ff"/>
     <use xlink:href="#m29d36270a6" x="747.163636" y="426.6" style="fill: #0000ff; stroke: #0000ff"/>
     <use xlink:href="#m29d36270a6" x="138.436364" y="300.6" style="fill: #0000ff; stroke: #0000ff"/>
     <use xlink:href="#m29d36270a6" x="225.397403" y="300.6" style="fill: #0000ff; stroke: #0000ff"/>
     <use xlink:href="#m29d36270a6" x="312.358442" y="300.6" style="fill: #0000ff; stroke: #0000ff"/>
     <use xlink:href="#m29d36270a6" x="399.319481" y="300.6" style="fill: #0000ff; stroke: #0000ff"/>
     <use xlink:href="#m29d36270a6" x="486.280519" y="300.6" style="fill: #0000ff; stroke: #0000ff"/>
     <use xlink:href="#m29d36270a6" x="573.241558" y="300.6" style="fill: #0000ff; stroke: #0000ff"/>
     <use xlink:href="#m29d36270a6" x="660.202597" y="300.6" style="fill: #0000ff; stroke: #0000ff"/>
     <use xlink:href="#m29d36270a6" x="747.163636" y="300.6" style="fill: #0000ff; stroke: #0000ff"/>
     <use xlink:href="#m29d36270a6" x="138.436364" y="174.6" style="fill: #0000ff; stroke: #0000ff"/>
     <use xlink:href="#m29d36270a6" x="225.397403" y="174.6" style="fill: #0000ff; stroke: #0000ff"/>
     <use xlink:href="#m29d36270a6" x="312.358442" y="174.6" style="fill: #0000ff; stroke: #0000ff"/>
     <use xlink:href="#m29d36270a6" x="399.319481" y="174.6" style="fill: #0000ff; stroke: #0000ff"/>
     <use xlink:href="#m29d36270a6" x="486.280519" y="174.6" style="fill: #0000ff; stroke: #0000ff"/>
     <use xlink:href="#m29d36270a6" x="573.241558" y="174.6" style="fill: #0000ff; stroke: #0000ff"/>
     <use xlink:href="#m29d36270a6" x="660.202597" y="174.6" style="fill: #0000ff; stroke: #0000ff"/>
     <use xlink:href="#m29d36270a6" x="747.163636" y="174.6" style="fill: #0000ff; stroke: #0000ff"/>
    </g>
   </g>
   <g id="PathCollection_3">
    <defs>
     <path id="m131187752b" d="M 0 3 
C 0.795609 3 1.55874 2.683901 2.12132 2.12132 
C 2.683901 1.55874 3 0.795609 3 0 
C 3 -0.795609 2.683901 -1.55874 2.12132 -2.12132 
C 1.55874 -2.683901 0.795609 -3 0 -3 
C -0.795609 -3 -1.55874 -2.683901 -2.12132 -2.12132 
C -2.683901 -1.55874 -3 -0.795609 -3 0 
C -3 0.795609 -2.683901 1.55874 -2.12132 2.12132 
C -1.55874 2.683901 -0.795609 3 0 3 
z
" style="stroke: #bf00bf"/>
    </defs>
    <g clip-path="url(#pb1d0761f7a)">
     <use xlink:href="#m131187752b" x="181.916883" y="615.6" style="fill: #bf00bf; stroke: #bf00bf"/>
     <use xlink:href="#m131187752b" x="268.877922" y="615.6" style="fill: #bf00bf; stroke: #bf00bf"/>
     <use xlink:href="#m131187752b" x="355.838961" y="615.6" style="fill: #bf00bf; stroke: #bf00bf"/>
     <use xlink:href="#m131187752b" x="442.8" y="615.6" style="fill: #bf00bf; stroke: #bf00bf"/>
     <use xlink:href="#m131187752b" x="529.761039" y="615.6" style="fill: #bf00bf; stroke: #bf00bf"/>
     <use xlink:href="#m131187752b" x="616.722078" y="615.6" style="fill: #bf00bf; stroke: #bf00bf"/>
     <use xlink:href="#m131187752b" x="703.683117" y="615.6" style="fill: #bf00bf; stroke: #bf00bf"/>
     <use xlink:href="#m131187752b" x="181.916883" y="489.6" style="fill: #bf00bf; stroke: #bf00bf"/>
     <use xlink:href="#m131187752b" x="268.877922" y="489.6" style="fill: #bf00bf; stroke: #bf00bf"/>
     <use xlink:href="#m131187752b" x="355.838961" y="489.6" style="fill: #bf00bf; stroke: #bf00bf"/>
     <use xlink:href="#m131187752b" x="442.8" y="489.6" style="fill: #bf00bf; stroke: #bf00bf"/>
     <use xlink:href="#m131187752b" x="529.761039" y="489.6" style="fill: #bf00bf; stroke: #bf00bf"/>
     <use xlink:href="#m131187752b" x="616.722078" y="489.6" style="fill: #bf00bf; stroke: #bf00bf"/>
     <use xlink:href="#m131187752b" x="703.683117" y="489.6" style="fill: #bf00bf; stroke: #bf00bf"/>
     <use xlink:href="#m131187752b" x="181.916883" y="363.6" style="fill: #bf00bf; stroke: #bf00bf"/>
     <use xlink:href="#m131187752b" x="268.877922" y="363.6" style="fill: #bf00bf; stroke: #bf00bf"/>
     <use xlink:href="#m131187752b" x="355.838961" y="363.6" style="fill: #bf00bf; stroke: #bf00bf"/>
     <use xlink:href="#m131187752b" x="442.8" y="363.6" style="fill: #bf00bf; stroke: #bf00bf"/>
     <use xlink:href="#m131187752b" x="529.761039" y="363.6" style="fill: #bf00bf; stroke: #bf00bf"/>
     <use xlink:href="#m131187752b" x="616.722078" y="363.6" style="fill: #bf00bf; stroke: #bf00bf"/>
     <use xlink:href="#m131187752b" x="703.683117" y="363.6" style="fill: #bf00bf; stroke: #bf00bf"/>
     <use xlink:href="#m131187752b" x="181.916883" y="237.6" style="fill: #bf00bf; stroke: #bf00bf"/>
     <use xlink:href="#m131187752b" x="268.877922" y="237.6" style="fill: #bf00bf; stroke: #bf00bf"/>
     <use xlink:href="#m131187752b" x="355.838961" y="237.6" style="fill: #bf00bf; stroke: #bf00bf"/>
     <use xlink:href="#m131187752b" x="442.8" y="237.6" style="fill: #bf00bf; stroke: #bf00bf"/>
     <use xlink:href="#m131187752b" x="529.761039" y="237.6" style="fill: #bf00bf; stroke: #bf00bf"/>
     <use xlink:href="#m131187752b" x="616.722078" y="237.6" style="fill: #bf00bf; stroke: #bf00bf"/>
     <use xlink:href="#m131187752b" x="703.683117" y="237.6" style="fill: #bf00bf; stroke: #bf00bf"/>
     <use xlink:href="#m131187752b" x="181.916883" y="111.6" style="fill: #bf00bf; stroke: #bf00bf"/>
     <use xlink:href="#m131187752b" x="268.877922" y="111.6" style="fill: #bf00bf; stroke: #bf00bf"/>
     <use xlink:href="#m131187752b" x="355.838961" y="111.6" style="fill: #bf00bf; stroke: #bf00bf"/>
     <use xlink:href="#m131187752b" x="442.8" y="111.6" style="fill: #bf00bf; stroke: #bf00bf"/>
     <use xlink:href="#m131187752b" x="529.761039" y="111.6" style="fill: #bf00bf; stroke: #bf00bf"/>
     <use xlink:href="#m131187752b" x="616.722078" y="111.6" style="fill: #bf00bf; stroke: #bf00bf"/>
     <use xlink:href="#m131187752b" x="703.683117" y="111.6" style="fill: #bf00bf; stroke: #bf00bf"/>
    </g>
   </g>
   <g id="matplotlib.axis_1">
    <g id="xtick_1">
     <g id="line2d_1">
      <path d="M 138.436364 640.8 
L 138.436364 86.4 
" clip-path="url(#pb1d0761f7a)" style="fill: none; stroke: #b0b0b0; stroke-width: 0.8; stroke-linecap: square"/>
     </g>
     <g id="line2d_2">
      <defs>
       <path id="mc1e70d47b4" d="M 0 0 
L 0 3.5 
" style="stroke: #000000; stroke-width: 0.8"/>
      </defs>
      <g>
       <use xlink:href="#mc1e70d47b4" x="138.436364" y="640.8" style="stroke: #000000; stroke-width: 0.8"/>
      </g>
     </g>
    </g>
    <g id="xtick_2">
     <g id="line2d_3">
      <path d="M 225.397403 640.8 
L 225.397403 86.4 
" clip-path="url(#pb1d0761f7a)" style="fill: none; stroke: #b0b0b0; stroke-width: 0.8; stroke-linecap: square"/>
     </g>
     <g id="line2d_4">
      <g>
       <use xlink:href="#mc1e70d47b4" x="225.397403" y="640.8" style="stroke: #000000; stroke-width: 0.8"/>
      </g>
     </g>
    </g>
    <g id="xtick_3">
     <g id="line2d_5">
      <path d="M 312.358442 640.8 
L 312.358442 86.4 
" clip-path="url(#pb1d0761f7a)" style="fill: none; stroke: #b0b0b0; stroke-width: 0.8; stroke-linecap: square"/>
     </g>
     <g id="line2d_6">
      <g>
       <use xlink:href="#mc1e70d47b4" x="312.358442" y="640.8" style="stroke: #000000; stroke-width: 0.8"/>
      </g>
     </g>
    </g>
    <g id="xtick_4">
     <g id="line2d_7">
      <path d="M 399.319481 640.8 
L 399.319481 86.4 
" clip-path="url(#pb1d0761f7a)" style="fill: none; stroke: #b0b0b0; stroke-width: 0.8; stroke-linecap: square"/>
     </g>
     <g id="line2d_8">
      <g>
       <use xlink:href="#mc1e70d47b4" x="399.319481" y="640.8" style="stroke: #000000; stroke-width: 0.8"/>
      </g>
     </g>
    </g>
    <g id="xtick_5">
     <g id="line2d_9">
      <path d="M 486.280519 640.8 
L 486.280519 86.4 
" clip-path="url(#pb1d0761f7a)" style="fill: none; stroke: #b0b0b0; stroke-width: 0.8; stroke-linecap: square"/>
     </g>
     <g id="line2d_10">
      <g>
       <use xlink:href="#mc1e70d47b4" x="486.280519" y="640.8" style="stroke: #000000; stroke-width: 0.8"/>
      </g>
     </g>
    </g>
    <g id="xtick_6">
     <g id="line2d_11">
      <path d="M 573.241558 640.8 
L 573.241558 86.4 
" clip-path="url(#pb1d0761f7a)" style="fill: none; stroke: #b0b0b0; stroke-width: 0.8; stroke-linecap: square"/>
     </g>
     <g id="line2d_12">
      <g>
       <use xlink:href="#mc1e70d47b4" x="573.241558" y="640.8" style="stroke: #000000; stroke-width: 0.8"/>
      </g>
     </g>
    </g>
    <g id="xtick_7">
     <g id="line2d_13">
      <path d="M 660.202597 640.8 
L 660.202597 86.4 
" clip-path="url(#pb1d0761f7a)" style="fill: none; stroke: #b0b0b0; stroke-width: 0.8; stroke-linecap: square"/>
     </g>
     <g id="line2d_14">
      <g>
       <use xlink:href="#mc1e70d47b4" x="660.202597" y="640.8" style="stroke: #000000; stroke-width: 0.8"/>
      </g>
     </g>
    </g>
    <g id="xtick_8">
     <g id="line2d_15">
      <path d="M 747.163636 640.8 
L 747.163636 86.4 
" clip-path="url(#pb1d0761f7a)" style="fill: none; stroke: #b0b0b0; stroke-width: 0.8; stroke-linecap: square"/>
     </g>
     <g id="line2d_16">
      <g>
       <use xlink:href="#mc1e70d47b4" x="747.163636" y="640.8" style="stroke: #000000; stroke-width: 0.8"/>
      </g>
     </g>
    </g>
    <g id="text_1">
     <!-- X -->
     <g transform="translate(437.32 660.4575) scale(0.16 -0.16)">
      <defs>
       <path id="DejaVuSans-58" d="M 403 4666 
L 1081 4666 
L 2241 2931 
L 3406 4666 
L 4084 4666 
L 2584 2425 
L 4184 0 
L 3506 0 
L 2194 1984 
L 872 0 
L 191 0 
L 1856 2491 
L 403 4666 
z
" transform="scale(0.015625)"/>
      </defs>
      <use xlink:href="#DejaVuSans-58"/>
     </g>
    </g>
   </g>
   <g id="matplotlib.axis_2">
    <g id="ytick_1">
     <g id="line2d_17">
      <path d="M 108 615.6 
L 777.6 615.6 
" clip-path="url(#pb1d0761f7a)" style="fill: none; stroke: #b0b0b0; stroke-width: 0.8; stroke-linecap: square"/>
     </g>
     <g id="line2d_18">
      <defs>
       <path id="md86b984cfe" d="M 0 0 
L -3.5 0 
" style="stroke: #000000; stroke-width: 0.8"/>
      </defs>
      <g>
       <use xlink:href="#md86b984cfe" x="108" y="615.6" style="stroke: #000000; stroke-width: 0.8"/>
      </g>
     </g>
    </g>
    <g id="ytick_2">
     <g id="line2d_19">
      <path d="M 108 489.6 
L 777.6 489.6 
" clip-path="url(#pb1d0761f7a)" style="fill: none; stroke: #b0b0b0; stroke-width: 0.8; stroke-linecap: square"/>
     </g>
     <g id="line2d_20">
      <g>
       <use xlink:href="#md86b984cfe" x="108" y="489.6" style="stroke: #000000; stroke-width: 0.8"/>
      </g>
     </g>
    </g>
    <g id="ytick_3">
     <g id="line2d_21">
      <path d="M 108 363.6 
L 777.6 363.6 
" clip-path="url(#pb1d0761f7a)" style="fill: none; stroke: #b0b0b0; stroke-width: 0.8; stroke-linecap: square"/>
     </g>
     <g id="line2d_22">
      <g>
       <use xlink:href="#md86b984cfe" x="108" y="363.6" style="stroke: #000000; stroke-width: 0.8"/>
      </g>
     </g>
    </g>
    <g id="ytick_4">
     <g id="line2d_23">
      <path d="M 108 237.6 
L 777.6 237.6 
" clip-path="url(#pb1d0761f7a)" style="fill: none; stroke: #b0b0b0; stroke-width: 0.8; stroke-linecap: square"/>
     </g>
     <g id="line2d_24">
      <g>
       <use xlink:href="#md86b984cfe" x="108" y="237.6" style="stroke: #000000; stroke-width: 0.8"/>
      </g>
     </g>
    </g>
    <g id="ytick_5">
     <g id="line2d_25">
      <path d="M 108 111.6 
L 777.6 111.6 
" clip-path="url(#pb1d0761f7a)" style="fill: none; stroke: #b0b0b0; stroke-width: 0.8; stroke-linecap: square"/>
     </g>
     <g id="line2d_26">
      <g>
       <use xlink:href="#md86b984cfe" x="108" y="111.6" style="stroke: #000000; stroke-width: 0.8"/>
      </g>
     </g>
    </g>
    <g id="text_2">
     <!-- Z -->
     <g transform="translate(97.1725 369.08) rotate(-90) scale(0.16 -0.16)">
      <defs>
       <path id="DejaVuSans-5a" d="M 359 4666 
L 4025 4666 
L 4025 4184 
L 1075 531 
L 4097 531 
L 4097 0 
L 288 0 
L 288 481 
L 3238 4134 
L 359 4134 
L 359 4666 
z
" transform="scale(0.015625)"/>
      </defs>
      <use xlink:href="#DejaVuSans-5a"/>
     </g>
    </g>
   </g>
   <g id="line2d_27">
    <path d="M 108 615.6 
L 777.6 615.6 
" clip-path="url(#pb1d0761f7a)" style="fill: none; stroke-dasharray: 5.55,2.4; stroke-dashoffset: 0; stroke: #bfbf00; stroke-width: 1.5"/>
   </g>
   <g id="patch_3">
    <path d="M 108 640.8 
L 108 86.4 
" style="fill: none; stroke: #000000; stroke-width: 0.8; stroke-linejoin: miter; stroke-linecap: square"/>
   </g>
   <g id="patch_4">
    <path d="M 777.6 640.8 
L 777.6 86.4 
" style="fill: none; stroke: #000000; stroke-width: 0.8; stroke-linejoin: miter; stroke-linecap: square"/>
   </g>
   <g id="patch_5">
    <path d="M 108 640.8 
L 777.6 640.8 
" style="fill: none; stroke: #000000; stroke-width: 0.8; stroke-linejoin: miter; stroke-linecap: square"/>
   </g>
   <g id="patch_6">
    <path d="M 108 86.4 
L 777.6 86.4 
" style="fill: none; stroke: #000000; stroke-width: 0.8; stroke-linejoin: miter; stroke-linecap: square"/>
   </g>
   <g id="text_3">
    <!--       i,k -->
    <g style="fill: #ff0000" transform="translate(160.176623 540) scale(0.12 -0.12)">
     <defs>
      <path id="DejaVuSans-20" transform="scale(0.015625)"/>
      <path id="DejaVuSans-69" d="M 603 3500 
L 1178 3500 
L 1178 0 
L 603 0 
L 603 3500 
z
M 603 4863 
L 1178 4863 
L 1178 4134 
L 603 4134 
L 603 4863 
z
" transform="scale(0.015625)"/>
      <path id="DejaVuSans-2c" d="M 750 794 
L 1409 794 
L 1409 256 
L 897 -744 
L 494 -744 
L 750 256 
L 750 794 
z
" transform="scale(0.015625)"/>
      <path id="DejaVuSans-6b" d="M 581 4863 
L 1159 4863 
L 1159 1991 
L 2875 3500 
L 3609 3500 
L 1753 1863 
L 3688 0 
L 2938 0 
L 1159 1709 
L 1159 0 
L 581 0 
L 581 4863 
z
" transform="scale(0.015625)"/>
     </defs>
     <use xlink:href="#DejaVuSans-20"/>
     <use xlink:href="#DejaVuSans-20" x="31.787109"/>
     <use xlink:href="#DejaVuSans-20" x="63.574219"/>
     <use xlink:href="#DejaVuSans-20" x="95.361328"/>
     <use xlink:href="#DejaVuSans-20" x="127.148438"/>
     <use xlink:href="#DejaVuSans-20" x="158.935547"/>
     <use xlink:href="#DejaVuSans-69" x="190.722656"/>
     <use xlink:href="#DejaVuSans-2c" x="218.505859"/>
     <use xlink:href="#DejaVuSans-6b" x="250.292969"/>
    </g>
   </g>
   <g id="text_4">
    <!--       i+2,k -->
    <g style="fill: #ff0000" transform="translate(334.098701 540) scale(0.12 -0.12)">
     <defs>
      <path id="DejaVuSans-2b" d="M 2944 4013 
L 2944 2272 
L 4684 2272 
L 4684 1741 
L 2944 1741 
L 2944 0 
L 2419 0 
L 2419 1741 
L 678 1741 
L 678 2272 
L 2419 2272 
L 2419 4013 
L 2944 4013 
z
" transform="scale(0.015625)"/>
      <path id="DejaVuSans-32" d="M 1228 531 
L 3431 531 
L 3431 0 
L 469 0 
L 469 531 
Q 828 903 1448 1529 
Q 2069 2156 2228 2338 
Q 2531 2678 2651 2914 
Q 2772 3150 2772 3378 
Q 2772 3750 2511 3984 
Q 2250 4219 1831 4219 
Q 1534 4219 1204 4116 
Q 875 4013 500 3803 
L 500 4441 
Q 881 4594 1212 4672 
Q 1544 4750 1819 4750 
Q 2544 4750 2975 4387 
Q 3406 4025 3406 3419 
Q 3406 3131 3298 2873 
Q 3191 2616 2906 2266 
Q 2828 2175 2409 1742 
Q 1991 1309 1228 531 
z
" transform="scale(0.015625)"/>
     </defs>
     <use xlink:href="#DejaVuSans-20"/>
     <use xlink:href="#DejaVuSans-20" x="31.787109"/>
     <use xlink:href="#DejaVuSans-20" x="63.574219"/>
     <use xlink:href="#DejaVuSans-20" x="95.361328"/>
     <use xlink:href="#DejaVuSans-20" x="127.148438"/>
     <use xlink:href="#DejaVuSans-20" x="158.935547"/>
     <use xlink:href="#DejaVuSans-69" x="190.722656"/>
     <use xlink:href="#DejaVuSans-2b" x="218.505859"/>
     <use xlink:href="#DejaVuSans-32" x="302.294922"/>
     <use xlink:href="#DejaVuSans-2c" x="365.917969"/>
     <use xlink:href="#DejaVuSans-6b" x="397.705078"/>
    </g>
   </g>
   <g id="text_5">
    <!--       i+4,k -->
    <g style="fill: #ff0000" transform="translate(508.020779 540) scale(0.12 -0.12)">
     <defs>
      <path id="DejaVuSans-34" d="M 2419 4116 
L 825 1625 
L 2419 1625 
L 2419 4116 
z
M 2253 4666 
L 3047 4666 
L 3047 1625 
L 3713 1625 
L 3713 1100 
L 3047 1100 
L 3047 0 
L 2419 0 
L 2419 1100 
L 313 1100 
L 313 1709 
L 2253 4666 
z
" transform="scale(0.015625)"/>
     </defs>
     <use xlink:href="#DejaVuSans-20"/>
     <use xlink:href="#DejaVuSans-20" x="31.787109"/>
     <use xlink:href="#DejaVuSans-20" x="63.574219"/>
     <use xlink:href="#DejaVuSans-20" x="95.361328"/>
     <use xlink:href="#DejaVuSans-20" x="127.148438"/>
     <use xlink:href="#DejaVuSans-20" x="158.935547"/>
     <use xlink:href="#DejaVuSans-69" x="190.722656"/>
     <use xlink:href="#DejaVuSans-2b" x="218.505859"/>
     <use xlink:href="#DejaVuSans-34" x="302.294922"/>
     <use xlink:href="#DejaVuSans-2c" x="365.917969"/>
     <use xlink:href="#DejaVuSans-6b" x="397.705078"/>
    </g>
   </g>
   <g id="text_6">
    <!--       i+6,k -->
    <g style="fill: #ff0000" transform="translate(681.942857 540) scale(0.12 -0.12)">
     <defs>
      <path id="DejaVuSans-36" d="M 2113 2584 
Q 1688 2584 1439 2293 
Q 1191 2003 1191 1497 
Q 1191 994 1439 701 
Q 1688 409 2113 409 
Q 2538 409 2786 701 
Q 3034 994 3034 1497 
Q 3034 2003 2786 2293 
Q 2538 2584 2113 2584 
z
M 3366 4563 
L 3366 3988 
Q 3128 4100 2886 4159 
Q 2644 4219 2406 4219 
Q 1781 4219 1451 3797 
Q 1122 3375 1075 2522 
Q 1259 2794 1537 2939 
Q 1816 3084 2150 3084 
Q 2853 3084 3261 2657 
Q 3669 2231 3669 1497 
Q 3669 778 3244 343 
Q 2819 -91 2113 -91 
Q 1303 -91 875 529 
Q 447 1150 447 2328 
Q 447 3434 972 4092 
Q 1497 4750 2381 4750 
Q 2619 4750 2861 4703 
Q 3103 4656 3366 4563 
z
" transform="scale(0.015625)"/>
     </defs>
     <use xlink:href="#DejaVuSans-20"/>
     <use xlink:href="#DejaVuSans-20" x="31.787109"/>
     <use xlink:href="#DejaVuSans-20" x="63.574219"/>
     <use xlink:href="#DejaVuSans-20" x="95.361328"/>
     <use xlink:href="#DejaVuSans-20" x="127.148438"/>
     <use xlink:href="#DejaVuSans-20" x="158.935547"/>
     <use xlink:href="#DejaVuSans-69" x="190.722656"/>
     <use xlink:href="#DejaVuSans-2b" x="218.505859"/>
     <use xlink:href="#DejaVuSans-36" x="302.294922"/>
     <use xlink:href="#DejaVuSans-2c" x="365.917969"/>
     <use xlink:href="#DejaVuSans-6b" x="397.705078"/>
    </g>
   </g>
   <g id="text_7">
    <!--       i,k+2 -->
    <g style="fill: #ff0000" transform="translate(160.176623 288) scale(0.12 -0.12)">
     <use xlink:href="#DejaVuSans-20"/>
     <use xlink:href="#DejaVuSans-20" x="31.787109"/>
     <use xlink:href="#DejaVuSans-20" x="63.574219"/>
     <use xlink:href="#DejaVuSans-20" x="95.361328"/>
     <use xlink:href="#DejaVuSans-20" x="127.148438"/>
     <use xlink:href="#DejaVuSans-20" x="158.935547"/>
     <use xlink:href="#DejaVuSans-69" x="190.722656"/>
     <use xlink:href="#DejaVuSans-2c" x="218.505859"/>
     <use xlink:href="#DejaVuSans-6b" x="250.292969"/>
     <use xlink:href="#DejaVuSans-2b" x="308.203125"/>
     <use xlink:href="#DejaVuSans-32" x="391.992188"/>
    </g>
   </g>
   <g id="text_8">
    <!--       i+2,k+2 -->
    <g style="fill: #ff0000" transform="translate(334.098701 288) scale(0.12 -0.12)">
     <use xlink:href="#DejaVuSans-20"/>
     <use xlink:href="#DejaVuSans-20" x="31.787109"/>
     <use xlink:href="#DejaVuSans-20" x="63.574219"/>
     <use xlink:href="#DejaVuSans-20" x="95.361328"/>
     <use xlink:href="#DejaVuSans-20" x="127.148438"/>
     <use xlink:href="#DejaVuSans-20" x="158.935547"/>
     <use xlink:href="#DejaVuSans-69" x="190.722656"/>
     <use xlink:href="#DejaVuSans-2b" x="218.505859"/>
     <use xlink:href="#DejaVuSans-32" x="302.294922"/>
     <use xlink:href="#DejaVuSans-2c" x="365.917969"/>
     <use xlink:href="#DejaVuSans-6b" x="397.705078"/>
     <use xlink:href="#DejaVuSans-2b" x="455.615234"/>
     <use xlink:href="#DejaVuSans-32" x="539.404297"/>
    </g>
   </g>
   <g id="text_9">
    <!--       i+4,k+2 -->
    <g style="fill: #ff0000" transform="translate(508.020779 288) scale(0.12 -0.12)">
     <use xlink:href="#DejaVuSans-20"/>
     <use xlink:href="#DejaVuSans-20" x="31.787109"/>
     <use xlink:href="#DejaVuSans-20" x="63.574219"/>
     <use xlink:href="#DejaVuSans-20" x="95.361328"/>
     <use xlink:href="#DejaVuSans-20" x="127.148438"/>
     <use xlink:href="#DejaVuSans-20" x="158.935547"/>
     <use xlink:href="#DejaVuSans-69" x="190.722656"/>
     <use xlink:href="#DejaVuSans-2b" x="218.505859"/>
     <use xlink:href="#DejaVuSans-34" x="302.294922"/>
     <use xlink:href="#DejaVuSans-2c" x="365.917969"/>
     <use xlink:href="#DejaVuSans-6b" x="397.705078"/>
     <use xlink:href="#DejaVuSans-2b" x="455.615234"/>
     <use xlink:href="#DejaVuSans-32" x="539.404297"/>
    </g>
   </g>
   <g id="text_10">
    <!--       i+6,k+2 -->
    <g style="fill: #ff0000" transform="translate(681.942857 288) scale(0.12 -0.12)">
     <use xlink:href="#DejaVuSans-20"/>
     <use xlink:href="#DejaVuSans-20" x="31.787109"/>
     <use xlink:href="#DejaVuSans-20" x="63.574219"/>
     <use xlink:href="#DejaVuSans-20" x="95.361328"/>
     <use xlink:href="#DejaVuSans-20" x="127.148438"/>
     <use xlink:href="#DejaVuSans-20" x="158.935547"/>
     <use xlink:href="#DejaVuSans-69" x="190.722656"/>
     <use xlink:href="#DejaVuSans-2b" x="218.505859"/>
     <use xlink:href="#DejaVuSans-36" x="302.294922"/>
     <use xlink:href="#DejaVuSans-2c" x="365.917969"/>
     <use xlink:href="#DejaVuSans-6b" x="397.705078"/>
     <use xlink:href="#DejaVuSans-2b" x="455.615234"/>
     <use xlink:href="#DejaVuSans-32" x="539.404297"/>
    </g>
   </g>
   <g id="text_11">
    <!-- i-$\frac{1}{2}$,k -->
    <g style="fill: #0000ff" transform="translate(116.696104 540) scale(0.12 -0.12)">
     <defs>
      <path id="DejaVuSans-2d" d="M 313 2009 
L 1997 2009 
L 1997 1497 
L 313 1497 
L 313 2009 
z
" transform="scale(0.015625)"/>
      <path id="DejaVuSans-31" d="M 794 531 
L 1825 531 
L 1825 4091 
L 703 3866 
L 703 4441 
L 1819 4666 
L 2450 4666 
L 2450 531 
L 3481 531 
L 3481 0 
L 794 0 
L 794 531 
z
" transform="scale(0.015625)"/>
     </defs>
     <use xlink:href="#DejaVuSans-69" transform="translate(0 0.16875)"/>
     <use xlink:href="#DejaVuSans-2d" transform="translate(27.783203 0.16875)"/>
     <use xlink:href="#DejaVuSans-31" transform="translate(63.867188 43.965625) scale(0.7)"/>
     <use xlink:href="#DejaVuSans-32" transform="translate(63.867188 -39.2375) scale(0.7)"/>
     <use xlink:href="#DejaVuSans-2c" transform="translate(120.90332 0.16875)"/>
     <use xlink:href="#DejaVuSans-6b" transform="translate(152.69043 0.16875)"/>
     <path d="M 63.867188 18.965625 
L 63.867188 25.215625 
L 108.40332 25.215625 
L 108.40332 18.965625 
L 63.867188 18.965625 
z
"/>
    </g>
   </g>
   <g id="text_12">
    <!-- i+$\frac{3}{2}$,k -->
    <g style="fill: #0000ff" transform="translate(290.618182 540) scale(0.12 -0.12)">
     <defs>
      <path id="DejaVuSans-33" d="M 2597 2516 
Q 3050 2419 3304 2112 
Q 3559 1806 3559 1356 
Q 3559 666 3084 287 
Q 2609 -91 1734 -91 
Q 1441 -91 1130 -33 
Q 819 25 488 141 
L 488 750 
Q 750 597 1062 519 
Q 1375 441 1716 441 
Q 2309 441 2620 675 
Q 2931 909 2931 1356 
Q 2931 1769 2642 2001 
Q 2353 2234 1838 2234 
L 1294 2234 
L 1294 2753 
L 1863 2753 
Q 2328 2753 2575 2939 
Q 2822 3125 2822 3475 
Q 2822 3834 2567 4026 
Q 2313 4219 1838 4219 
Q 1578 4219 1281 4162 
Q 984 4106 628 3988 
L 628 4550 
Q 988 4650 1302 4700 
Q 1616 4750 1894 4750 
Q 2613 4750 3031 4423 
Q 3450 4097 3450 3541 
Q 3450 3153 3228 2886 
Q 3006 2619 2597 2516 
z
" transform="scale(0.015625)"/>
     </defs>
     <use xlink:href="#DejaVuSans-69" transform="translate(0 0.254687)"/>
     <use xlink:href="#DejaVuSans-2b" transform="translate(27.783203 0.254687)"/>
     <use xlink:href="#DejaVuSans-33" transform="translate(111.572266 45.046875) scale(0.7)"/>
     <use xlink:href="#DejaVuSans-32" transform="translate(111.572266 -39.151563) scale(0.7)"/>
     <use xlink:href="#DejaVuSans-2c" transform="translate(168.608398 0.254687)"/>
     <use xlink:href="#DejaVuSans-6b" transform="translate(200.395508 0.254687)"/>
     <path d="M 111.572266 19.051563 
L 111.572266 25.301563 
L 156.108398 25.301563 
L 156.108398 19.051563 
L 111.572266 19.051563 
z
"/>
    </g>
   </g>
   <g id="text_13">
    <!-- i+$\frac{7}{2}$,k -->
    <g style="fill: #0000ff" transform="translate(464.54026 540) scale(0.12 -0.12)">
     <defs>
      <path id="DejaVuSans-37" d="M 525 4666 
L 3525 4666 
L 3525 4397 
L 1831 0 
L 1172 0 
L 2766 4134 
L 525 4134 
L 525 4666 
z
" transform="scale(0.015625)"/>
     </defs>
     <use xlink:href="#DejaVuSans-69" transform="translate(0 0.16875)"/>
     <use xlink:href="#DejaVuSans-2b" transform="translate(27.783203 0.16875)"/>
     <use xlink:href="#DejaVuSans-37" transform="translate(111.572266 43.965625) scale(0.7)"/>
     <use xlink:href="#DejaVuSans-32" transform="translate(111.572266 -39.2375) scale(0.7)"/>
     <use xlink:href="#DejaVuSans-2c" transform="translate(168.608398 0.16875)"/>
     <use xlink:href="#DejaVuSans-6b" transform="translate(200.395508 0.16875)"/>
     <path d="M 111.572266 18.965625 
L 111.572266 25.215625 
L 156.108398 25.215625 
L 156.108398 18.965625 
L 111.572266 18.965625 
z
"/>
    </g>
   </g>
   <g id="text_14">
    <!-- i+$\frac{11}{2}$,k -->
    <g style="fill: #0000ff" transform="translate(638.462338 540) scale(0.12 -0.12)">
     <use xlink:href="#DejaVuSans-69" transform="translate(0 0.16875)"/>
     <use xlink:href="#DejaVuSans-2b" transform="translate(27.783203 0.16875)"/>
     <use xlink:href="#DejaVuSans-31" transform="translate(111.572266 43.965625) scale(0.7)"/>
     <use xlink:href="#DejaVuSans-31" transform="translate(156.108398 43.965625) scale(0.7)"/>
     <use xlink:href="#DejaVuSans-32" transform="translate(133.572266 -39.2375) scale(0.7)"/>
     <use xlink:href="#DejaVuSans-2c" transform="translate(213.144531 0.16875)"/>
     <use xlink:href="#DejaVuSans-6b" transform="translate(244.931641 0.16875)"/>
     <path d="M 111.572266 18.965625 
L 111.572266 25.215625 
L 200.644531 25.215625 
L 200.644531 18.965625 
L 111.572266 18.965625 
z
"/>
    </g>
   </g>
   <g id="text_15">
    <!-- i-$\frac{1}{2}$,k+2 -->
    <g style="fill: #0000ff" transform="translate(116.696104 288) scale(0.12 -0.12)">
     <use xlink:href="#DejaVuSans-69" transform="translate(0 0.16875)"/>
     <use xlink:href="#DejaVuSans-2d" transform="translate(27.783203 0.16875)"/>
     <use xlink:href="#DejaVuSans-31" transform="translate(63.867188 43.965625) scale(0.7)"/>
     <use xlink:href="#DejaVuSans-32" transform="translate(63.867188 -39.2375) scale(0.7)"/>
     <use xlink:href="#DejaVuSans-2c" transform="translate(120.90332 0.16875)"/>
     <use xlink:href="#DejaVuSans-6b" transform="translate(152.69043 0.16875)"/>
     <use xlink:href="#DejaVuSans-2b" transform="translate(210.600586 0.16875)"/>
     <use xlink:href="#DejaVuSans-32" transform="translate(294.389648 0.16875)"/>
     <path d="M 63.867188 18.965625 
L 63.867188 25.215625 
L 108.40332 25.215625 
L 108.40332 18.965625 
L 63.867188 18.965625 
z
"/>
    </g>
   </g>
   <g id="text_16">
    <!-- i+$\frac{3}{2}$,k+2 -->
    <g style="fill: #0000ff" transform="translate(290.618182 288) scale(0.12 -0.12)">
     <use xlink:href="#DejaVuSans-69" transform="translate(0 0.254687)"/>
     <use xlink:href="#DejaVuSans-2b" transform="translate(27.783203 0.254687)"/>
     <use xlink:href="#DejaVuSans-33" transform="translate(111.572266 45.046875) scale(0.7)"/>
     <use xlink:href="#DejaVuSans-32" transform="translate(111.572266 -39.151563) scale(0.7)"/>
     <use xlink:href="#DejaVuSans-2c" transform="translate(168.608398 0.254687)"/>
     <use xlink:href="#DejaVuSans-6b" transform="translate(200.395508 0.254687)"/>
     <use xlink:href="#DejaVuSans-2b" transform="translate(258.305664 0.254687)"/>
     <use xlink:href="#DejaVuSans-32" transform="translate(342.094727 0.254687)"/>
     <path d="M 111.572266 19.051563 
L 111.572266 25.301563 
L 156.108398 25.301563 
L 156.108398 19.051563 
L 111.572266 19.051563 
z
"/>
    </g>
   </g>
   <g id="text_17">
    <!-- i+$\frac{7}{2}$,k+2 -->
    <g style="fill: #0000ff" transform="translate(464.54026 288) scale(0.12 -0.12)">
     <use xlink:href="#DejaVuSans-69" transform="translate(0 0.16875)"/>
     <use xlink:href="#DejaVuSans-2b" transform="translate(27.783203 0.16875)"/>
     <use xlink:href="#DejaVuSans-37" transform="translate(111.572266 43.965625) scale(0.7)"/>
     <use xlink:href="#DejaVuSans-32" transform="translate(111.572266 -39.2375) scale(0.7)"/>
     <use xlink:href="#DejaVuSans-2c" transform="translate(168.608398 0.16875)"/>
     <use xlink:href="#DejaVuSans-6b" transform="translate(200.395508 0.16875)"/>
     <use xlink:href="#DejaVuSans-2b" transform="translate(258.305664 0.16875)"/>
     <use xlink:href="#DejaVuSans-32" transform="translate(342.094727 0.16875)"/>
     <path d="M 111.572266 18.965625 
L 111.572266 25.215625 
L 156.108398 25.215625 
L 156.108398 18.965625 
L 111.572266 18.965625 
z
"/>
    </g>
   </g>
   <g id="text_18">
    <!-- i+$\frac{11}{2}$,k+2 -->
    <g style="fill: #0000ff" transform="translate(638.462338 288) scale(0.12 -0.12)">
     <use xlink:href="#DejaVuSans-69" transform="translate(0 0.16875)"/>
     <use xlink:href="#DejaVuSans-2b" transform="translate(27.783203 0.16875)"/>
     <use xlink:href="#DejaVuSans-31" transform="translate(111.572266 43.965625) scale(0.7)"/>
     <use xlink:href="#DejaVuSans-31" transform="translate(156.108398 43.965625) scale(0.7)"/>
     <use xlink:href="#DejaVuSans-32" transform="translate(133.572266 -39.2375) scale(0.7)"/>
     <use xlink:href="#DejaVuSans-2c" transform="translate(213.144531 0.16875)"/>
     <use xlink:href="#DejaVuSans-6b" transform="translate(244.931641 0.16875)"/>
     <use xlink:href="#DejaVuSans-2b" transform="translate(302.841797 0.16875)"/>
     <use xlink:href="#DejaVuSans-32" transform="translate(386.630859 0.16875)"/>
     <path d="M 111.572266 18.965625 
L 111.572266 25.215625 
L 200.644531 25.215625 
L 200.644531 18.965625 
L 111.572266 18.965625 
z
"/>
    </g>
   </g>
   <g id="text_19">
    <!-- i,k-$\frac{1}{2}$ -->
    <g style="fill: #bf00bf" transform="translate(160.176623 603) scale(0.12 -0.12)">
     <use xlink:href="#DejaVuSans-69" transform="translate(0 0.16875)"/>
     <use xlink:href="#DejaVuSans-2c" transform="translate(27.783203 0.16875)"/>
     <use xlink:href="#DejaVuSans-6b" transform="translate(59.570312 0.16875)"/>
     <use xlink:href="#DejaVuSans-2d" transform="translate(117.480469 0.16875)"/>
     <use xlink:href="#DejaVuSans-31" transform="translate(153.564453 43.965625) scale(0.7)"/>
     <use xlink:href="#DejaVuSans-32" transform="translate(153.564453 -39.2375) scale(0.7)"/>
     <path d="M 153.564453 18.965625 
L 153.564453 25.215625 
L 198.100586 25.215625 
L 198.100586 18.965625 
L 153.564453 18.965625 
z
"/>
    </g>
   </g>
   <g id="text_20">
    <!-- i+2,k-$\frac{1}{2}$ -->
    <g style="fill: #bf00bf" transform="translate(334.098701 603) scale(0.12 -0.12)">
     <use xlink:href="#DejaVuSans-69" transform="translate(0 0.16875)"/>
     <use xlink:href="#DejaVuSans-2b" transform="translate(27.783203 0.16875)"/>
     <use xlink:href="#DejaVuSans-32" transform="translate(111.572266 0.16875)"/>
     <use xlink:href="#DejaVuSans-2c" transform="translate(175.195312 0.16875)"/>
     <use xlink:href="#DejaVuSans-6b" transform="translate(206.982422 0.16875)"/>
     <use xlink:href="#DejaVuSans-2d" transform="translate(264.892578 0.16875)"/>
     <use xlink:href="#DejaVuSans-31" transform="translate(300.976562 43.965625) scale(0.7)"/>
     <use xlink:href="#DejaVuSans-32" transform="translate(300.976562 -39.2375) scale(0.7)"/>
     <path d="M 300.976562 18.965625 
L 300.976562 25.215625 
L 345.512695 25.215625 
L 345.512695 18.965625 
L 300.976562 18.965625 
z
"/>
    </g>
   </g>
   <g id="text_21">
    <!-- i+4,k-$\frac{1}{2}$ -->
    <g style="fill: #bf00bf" transform="translate(508.020779 603) scale(0.12 -0.12)">
     <use xlink:href="#DejaVuSans-69" transform="translate(0 0.16875)"/>
     <use xlink:href="#DejaVuSans-2b" transform="translate(27.783203 0.16875)"/>
     <use xlink:href="#DejaVuSans-34" transform="translate(111.572266 0.16875)"/>
     <use xlink:href="#DejaVuSans-2c" transform="translate(175.195312 0.16875)"/>
     <use xlink:href="#DejaVuSans-6b" transform="translate(206.982422 0.16875)"/>
     <use xlink:href="#DejaVuSans-2d" transform="translate(264.892578 0.16875)"/>
     <use xlink:href="#DejaVuSans-31" transform="translate(300.976562 43.965625) scale(0.7)"/>
     <use xlink:href="#DejaVuSans-32" transform="translate(300.976562 -39.2375) scale(0.7)"/>
     <path d="M 300.976562 18.965625 
L 300.976562 25.215625 
L 345.512695 25.215625 
L 345.512695 18.965625 
L 300.976562 18.965625 
z
"/>
    </g>
   </g>
   <g id="text_22">
    <!-- i+6,k-$\frac{1}{2}$ -->
    <g style="fill: #bf00bf" transform="translate(681.942857 603) scale(0.12 -0.12)">
     <use xlink:href="#DejaVuSans-69" transform="translate(0 0.16875)"/>
     <use xlink:href="#DejaVuSans-2b" transform="translate(27.783203 0.16875)"/>
     <use xlink:href="#DejaVuSans-36" transform="translate(111.572266 0.16875)"/>
     <use xlink:href="#DejaVuSans-2c" transform="translate(175.195312 0.16875)"/>
     <use xlink:href="#DejaVuSans-6b" transform="translate(206.982422 0.16875)"/>
     <use xlink:href="#DejaVuSans-2d" transform="translate(264.892578 0.16875)"/>
     <use xlink:href="#DejaVuSans-31" transform="translate(300.976562 43.965625) scale(0.7)"/>
     <use xlink:href="#DejaVuSans-32" transform="translate(300.976562 -39.2375) scale(0.7)"/>
     <path d="M 300.976562 18.965625 
L 300.976562 25.215625 
L 345.512695 25.215625 
L 345.512695 18.965625 
L 300.976562 18.965625 
z
"/>
    </g>
   </g>
   <g id="text_23">
    <!-- i,k+$\frac{3}{2}$ -->
    <g style="fill: #bf00bf" transform="translate(160.176623 351) scale(0.12 -0.12)">
     <use xlink:href="#DejaVuSans-69" transform="translate(0 0.254687)"/>
     <use xlink:href="#DejaVuSans-2c" transform="translate(27.783203 0.254687)"/>
     <use xlink:href="#DejaVuSans-6b" transform="translate(59.570312 0.254687)"/>
     <use xlink:href="#DejaVuSans-2b" transform="translate(117.480469 0.254687)"/>
     <use xlink:href="#DejaVuSans-33" transform="translate(201.269531 45.046875) scale(0.7)"/>
     <use xlink:href="#DejaVuSans-32" transform="translate(201.269531 -39.151563) scale(0.7)"/>
     <path d="M 201.269531 19.051563 
L 201.269531 25.301563 
L 245.805664 25.301563 
L 245.805664 19.051563 
L 201.269531 19.051563 
z
"/>
    </g>
   </g>
   <g id="text_24">
    <!-- i+2,k+$\frac{3}{2}$ -->
    <g style="fill: #bf00bf" transform="translate(334.098701 351) scale(0.12 -0.12)">
     <use xlink:href="#DejaVuSans-69" transform="translate(0 0.254687)"/>
     <use xlink:href="#DejaVuSans-2b" transform="translate(27.783203 0.254687)"/>
     <use xlink:href="#DejaVuSans-32" transform="translate(111.572266 0.254687)"/>
     <use xlink:href="#DejaVuSans-2c" transform="translate(175.195312 0.254687)"/>
     <use xlink:href="#DejaVuSans-6b" transform="translate(206.982422 0.254687)"/>
     <use xlink:href="#DejaVuSans-2b" transform="translate(264.892578 0.254687)"/>
     <use xlink:href="#DejaVuSans-33" transform="translate(348.681641 45.046875) scale(0.7)"/>
     <use xlink:href="#DejaVuSans-32" transform="translate(348.681641 -39.151563) scale(0.7)"/>
     <path d="M 348.681641 19.051563 
L 348.681641 25.301563 
L 393.217773 25.301563 
L 393.217773 19.051563 
L 348.681641 19.051563 
z
"/>
    </g>
   </g>
   <g id="text_25">
    <!-- i+4,k+$\frac{3}{2}$ -->
    <g style="fill: #bf00bf" transform="translate(508.020779 351) scale(0.12 -0.12)">
     <use xlink:href="#DejaVuSans-69" transform="translate(0 0.254687)"/>
     <use xlink:href="#DejaVuSans-2b" transform="translate(27.783203 0.254687)"/>
     <use xlink:href="#DejaVuSans-34" transform="translate(111.572266 0.254687)"/>
     <use xlink:href="#DejaVuSans-2c" transform="translate(175.195312 0.254687)"/>
     <use xlink:href="#DejaVuSans-6b" transform="translate(206.982422 0.254687)"/>
     <use xlink:href="#DejaVuSans-2b" transform="translate(264.892578 0.254687)"/>
     <use xlink:href="#DejaVuSans-33" transform="translate(348.681641 45.046875) scale(0.7)"/>
     <use xlink:href="#DejaVuSans-32" transform="translate(348.681641 -39.151563) scale(0.7)"/>
     <path d="M 348.681641 19.051563 
L 348.681641 25.301563 
L 393.217773 25.301563 
L 393.217773 19.051563 
L 348.681641 19.051563 
z
"/>
    </g>
   </g>
   <g id="text_26">
    <!-- i+6,k+$\frac{3}{2}$ -->
    <g style="fill: #bf00bf" transform="translate(681.942857 351) scale(0.12 -0.12)">
     <use xlink:href="#DejaVuSans-69" transform="translate(0 0.254687)"/>
     <use xlink:href="#DejaVuSans-2b" transform="translate(27.783203 0.254687)"/>
     <use xlink:href="#DejaVuSans-36" transform="translate(111.572266 0.254687)"/>
     <use xlink:href="#DejaVuSans-2c" transform="translate(175.195312 0.254687)"/>
     <use xlink:href="#DejaVuSans-6b" transform="translate(206.982422 0.254687)"/>
     <use xlink:href="#DejaVuSans-2b" transform="translate(264.892578 0.254687)"/>
     <use xlink:href="#DejaVuSans-33" transform="translate(348.681641 45.046875) scale(0.7)"/>
     <use xlink:href="#DejaVuSans-32" transform="translate(348.681641 -39.151563) scale(0.7)"/>
     <path d="M 348.681641 19.051563 
L 348.681641 25.301563 
L 393.217773 25.301563 
L 393.217773 19.051563 
L 348.681641 19.051563 
z
"/>
    </g>
   </g>
   <g id="text_27">
    <!-- i,k+$\frac{7}{2}$ -->
    <g style="fill: #bf00bf" transform="translate(160.176623 99) scale(0.12 -0.12)">
     <use xlink:href="#DejaVuSans-69" transform="translate(0 0.16875)"/>
     <use xlink:href="#DejaVuSans-2c" transform="translate(27.783203 0.16875)"/>
     <use xlink:href="#DejaVuSans-6b" transform="translate(59.570312 0.16875)"/>
     <use xlink:href="#DejaVuSans-2b" transform="translate(117.480469 0.16875)"/>
     <use xlink:href="#DejaVuSans-37" transform="translate(201.269531 43.965625) scale(0.7)"/>
     <use xlink:href="#DejaVuSans-32" transform="translate(201.269531 -39.2375) scale(0.7)"/>
     <path d="M 201.269531 18.965625 
L 201.269531 25.215625 
L 245.805664 25.215625 
L 245.805664 18.965625 
L 201.269531 18.965625 
z
"/>
    </g>
   </g>
   <g id="text_28">
    <!-- i+2,k+$\frac{7}{2}$ -->
    <g style="fill: #bf00bf" transform="translate(334.098701 99) scale(0.12 -0.12)">
     <use xlink:href="#DejaVuSans-69" transform="translate(0 0.16875)"/>
     <use xlink:href="#DejaVuSans-2b" transform="translate(27.783203 0.16875)"/>
     <use xlink:href="#DejaVuSans-32" transform="translate(111.572266 0.16875)"/>
     <use xlink:href="#DejaVuSans-2c" transform="translate(175.195312 0.16875)"/>
     <use xlink:href="#DejaVuSans-6b" transform="translate(206.982422 0.16875)"/>
     <use xlink:href="#DejaVuSans-2b" transform="translate(264.892578 0.16875)"/>
     <use xlink:href="#DejaVuSans-37" transform="translate(348.681641 43.965625) scale(0.7)"/>
     <use xlink:href="#DejaVuSans-32" transform="translate(348.681641 -39.2375) scale(0.7)"/>
     <path d="M 348.681641 18.965625 
L 348.681641 25.215625 
L 393.217773 25.215625 
L 393.217773 18.965625 
L 348.681641 18.965625 
z
"/>
    </g>
   </g>
   <g id="text_29">
    <!-- i+4,k+$\frac{7}{2}$ -->
    <g style="fill: #bf00bf" transform="translate(508.020779 99) scale(0.12 -0.12)">
     <use xlink:href="#DejaVuSans-69" transform="translate(0 0.16875)"/>
     <use xlink:href="#DejaVuSans-2b" transform="translate(27.783203 0.16875)"/>
     <use xlink:href="#DejaVuSans-34" transform="translate(111.572266 0.16875)"/>
     <use xlink:href="#DejaVuSans-2c" transform="translate(175.195312 0.16875)"/>
     <use xlink:href="#DejaVuSans-6b" transform="translate(206.982422 0.16875)"/>
     <use xlink:href="#DejaVuSans-2b" transform="translate(264.892578 0.16875)"/>
     <use xlink:href="#DejaVuSans-37" transform="translate(348.681641 43.965625) scale(0.7)"/>
     <use xlink:href="#DejaVuSans-32" transform="translate(348.681641 -39.2375) scale(0.7)"/>
     <path d="M 348.681641 18.965625 
L 348.681641 25.215625 
L 393.217773 25.215625 
L 393.217773 18.965625 
L 348.681641 18.965625 
z
"/>
    </g>
   </g>
   <g id="text_30">
    <!-- i+6,k+$\frac{7}{2}$ -->
    <g style="fill: #bf00bf" transform="translate(681.942857 99) scale(0.12 -0.12)">
     <use xlink:href="#DejaVuSans-69" transform="translate(0 0.16875)"/>
     <use xlink:href="#DejaVuSans-2b" transform="translate(27.783203 0.16875)"/>
     <use xlink:href="#DejaVuSans-36" transform="translate(111.572266 0.16875)"/>
     <use xlink:href="#DejaVuSans-2c" transform="translate(175.195312 0.16875)"/>
     <use xlink:href="#DejaVuSans-6b" transform="translate(206.982422 0.16875)"/>
     <use xlink:href="#DejaVuSans-2b" transform="translate(264.892578 0.16875)"/>
     <use xlink:href="#DejaVuSans-37" transform="translate(348.681641 43.965625) scale(0.7)"/>
     <use xlink:href="#DejaVuSans-32" transform="translate(348.681641 -39.2375) scale(0.7)"/>
     <path d="M 348.681641 18.965625 
L 348.681641 25.215625 
L 393.217773 25.215625 
L 393.217773 18.965625 
L 348.681641 18.965625 
z
"/>
    </g>
   </g>
   <g id="text_31">
    <!-- SFC -->
    <g style="fill: #bfbf00" transform="translate(51.475325 621.9) scale(0.14 -0.14)">
     <defs>
      <path id="DejaVuSans-53" d="M 3425 4513 
L 3425 3897 
Q 3066 4069 2747 4153 
Q 2428 4238 2131 4238 
Q 1616 4238 1336 4038 
Q 1056 3838 1056 3469 
Q 1056 3159 1242 3001 
Q 1428 2844 1947 2747 
L 2328 2669 
Q 3034 2534 3370 2195 
Q 3706 1856 3706 1288 
Q 3706 609 3251 259 
Q 2797 -91 1919 -91 
Q 1588 -91 1214 -16 
Q 841 59 441 206 
L 441 856 
Q 825 641 1194 531 
Q 1563 422 1919 422 
Q 2459 422 2753 634 
Q 3047 847 3047 1241 
Q 3047 1584 2836 1778 
Q 2625 1972 2144 2069 
L 1759 2144 
Q 1053 2284 737 2584 
Q 422 2884 422 3419 
Q 422 4038 858 4394 
Q 1294 4750 2059 4750 
Q 2388 4750 2728 4690 
Q 3069 4631 3425 4513 
z
" transform="scale(0.015625)"/>
      <path id="DejaVuSans-46" d="M 628 4666 
L 3309 4666 
L 3309 4134 
L 1259 4134 
L 1259 2759 
L 3109 2759 
L 3109 2228 
L 1259 2228 
L 1259 0 
L 628 0 
L 628 4666 
z
" transform="scale(0.015625)"/>
      <path id="DejaVuSans-43" d="M 4122 4306 
L 4122 3641 
Q 3803 3938 3442 4084 
Q 3081 4231 2675 4231 
Q 1875 4231 1450 3742 
Q 1025 3253 1025 2328 
Q 1025 1406 1450 917 
Q 1875 428 2675 428 
Q 3081 428 3442 575 
Q 3803 722 4122 1019 
L 4122 359 
Q 3791 134 3420 21 
Q 3050 -91 2638 -91 
Q 1578 -91 968 557 
Q 359 1206 359 2328 
Q 359 3453 968 4101 
Q 1578 4750 2638 4750 
Q 3056 4750 3426 4639 
Q 3797 4528 4122 4306 
z
" transform="scale(0.015625)"/>
     </defs>
     <use xlink:href="#DejaVuSans-53"/>
     <use xlink:href="#DejaVuSans-46" x="63.476562"/>
     <use xlink:href="#DejaVuSans-43" x="120.996094"/>
    </g>
   </g>
   <g id="text_32">
    <!-- C-Grid Example -->
    <g transform="translate(372.147188 80.4) scale(0.18 -0.18)">
     <defs>
      <path id="DejaVuSans-47" d="M 3809 666 
L 3809 1919 
L 2778 1919 
L 2778 2438 
L 4434 2438 
L 4434 434 
Q 4069 175 3628 42 
Q 3188 -91 2688 -91 
Q 1594 -91 976 548 
Q 359 1188 359 2328 
Q 359 3472 976 4111 
Q 1594 4750 2688 4750 
Q 3144 4750 3555 4637 
Q 3966 4525 4313 4306 
L 4313 3634 
Q 3963 3931 3569 4081 
Q 3175 4231 2741 4231 
Q 1884 4231 1454 3753 
Q 1025 3275 1025 2328 
Q 1025 1384 1454 906 
Q 1884 428 2741 428 
Q 3075 428 3337 486 
Q 3600 544 3809 666 
z
" transform="scale(0.015625)"/>
      <path id="DejaVuSans-72" d="M 2631 2963 
Q 2534 3019 2420 3045 
Q 2306 3072 2169 3072 
Q 1681 3072 1420 2755 
Q 1159 2438 1159 1844 
L 1159 0 
L 581 0 
L 581 3500 
L 1159 3500 
L 1159 2956 
Q 1341 3275 1631 3429 
Q 1922 3584 2338 3584 
Q 2397 3584 2469 3576 
Q 2541 3569 2628 3553 
L 2631 2963 
z
" transform="scale(0.015625)"/>
      <path id="DejaVuSans-64" d="M 2906 2969 
L 2906 4863 
L 3481 4863 
L 3481 0 
L 2906 0 
L 2906 525 
Q 2725 213 2448 61 
Q 2172 -91 1784 -91 
Q 1150 -91 751 415 
Q 353 922 353 1747 
Q 353 2572 751 3078 
Q 1150 3584 1784 3584 
Q 2172 3584 2448 3432 
Q 2725 3281 2906 2969 
z
M 947 1747 
Q 947 1113 1208 752 
Q 1469 391 1925 391 
Q 2381 391 2643 752 
Q 2906 1113 2906 1747 
Q 2906 2381 2643 2742 
Q 2381 3103 1925 3103 
Q 1469 3103 1208 2742 
Q 947 2381 947 1747 
z
" transform="scale(0.015625)"/>
      <path id="DejaVuSans-45" d="M 628 4666 
L 3578 4666 
L 3578 4134 
L 1259 4134 
L 1259 2753 
L 3481 2753 
L 3481 2222 
L 1259 2222 
L 1259 531 
L 3634 531 
L 3634 0 
L 628 0 
L 628 4666 
z
" transform="scale(0.015625)"/>
      <path id="DejaVuSans-78" d="M 3513 3500 
L 2247 1797 
L 3578 0 
L 2900 0 
L 1881 1375 
L 863 0 
L 184 0 
L 1544 1831 
L 300 3500 
L 978 3500 
L 1906 2253 
L 2834 3500 
L 3513 3500 
z
" transform="scale(0.015625)"/>
      <path id="DejaVuSans-61" d="M 2194 1759 
Q 1497 1759 1228 1600 
Q 959 1441 959 1056 
Q 959 750 1161 570 
Q 1363 391 1709 391 
Q 2188 391 2477 730 
Q 2766 1069 2766 1631 
L 2766 1759 
L 2194 1759 
z
M 3341 1997 
L 3341 0 
L 2766 0 
L 2766 531 
Q 2569 213 2275 61 
Q 1981 -91 1556 -91 
Q 1019 -91 701 211 
Q 384 513 384 1019 
Q 384 1609 779 1909 
Q 1175 2209 1959 2209 
L 2766 2209 
L 2766 2266 
Q 2766 2663 2505 2880 
Q 2244 3097 1772 3097 
Q 1472 3097 1187 3025 
Q 903 2953 641 2809 
L 641 3341 
Q 956 3463 1253 3523 
Q 1550 3584 1831 3584 
Q 2591 3584 2966 3190 
Q 3341 2797 3341 1997 
z
" transform="scale(0.015625)"/>
      <path id="DejaVuSans-6d" d="M 3328 2828 
Q 3544 3216 3844 3400 
Q 4144 3584 4550 3584 
Q 5097 3584 5394 3201 
Q 5691 2819 5691 2113 
L 5691 0 
L 5113 0 
L 5113 2094 
Q 5113 2597 4934 2840 
Q 4756 3084 4391 3084 
Q 3944 3084 3684 2787 
Q 3425 2491 3425 1978 
L 3425 0 
L 2847 0 
L 2847 2094 
Q 2847 2600 2669 2842 
Q 2491 3084 2119 3084 
Q 1678 3084 1418 2786 
Q 1159 2488 1159 1978 
L 1159 0 
L 581 0 
L 581 3500 
L 1159 3500 
L 1159 2956 
Q 1356 3278 1631 3431 
Q 1906 3584 2284 3584 
Q 2666 3584 2933 3390 
Q 3200 3197 3328 2828 
z
" transform="scale(0.015625)"/>
      <path id="DejaVuSans-70" d="M 1159 525 
L 1159 -1331 
L 581 -1331 
L 581 3500 
L 1159 3500 
L 1159 2969 
Q 1341 3281 1617 3432 
Q 1894 3584 2278 3584 
Q 2916 3584 3314 3078 
Q 3713 2572 3713 1747 
Q 3713 922 3314 415 
Q 2916 -91 2278 -91 
Q 1894 -91 1617 61 
Q 1341 213 1159 525 
z
M 3116 1747 
Q 3116 2381 2855 2742 
Q 2594 3103 2138 3103 
Q 1681 3103 1420 2742 
Q 1159 2381 1159 1747 
Q 1159 1113 1420 752 
Q 1681 391 2138 391 
Q 2594 391 2855 752 
Q 3116 1113 3116 1747 
z
" transform="scale(0.015625)"/>
      <path id="DejaVuSans-6c" d="M 603 4863 
L 1178 4863 
L 1178 0 
L 603 0 
L 603 4863 
z
" transform="scale(0.015625)"/>
      <path id="DejaVuSans-65" d="M 3597 1894 
L 3597 1613 
L 953 1613 
Q 991 1019 1311 708 
Q 1631 397 2203 397 
Q 2534 397 2845 478 
Q 3156 559 3463 722 
L 3463 178 
Q 3153 47 2828 -22 
Q 2503 -91 2169 -91 
Q 1331 -91 842 396 
Q 353 884 353 1716 
Q 353 2575 817 3079 
Q 1281 3584 2069 3584 
Q 2775 3584 3186 3129 
Q 3597 2675 3597 1894 
z
M 3022 2063 
Q 3016 2534 2758 2815 
Q 2500 3097 2075 3097 
Q 1594 3097 1305 2825 
Q 1016 2553 972 2059 
L 3022 2063 
z
" transform="scale(0.015625)"/>
     </defs>
     <use xlink:href="#DejaVuSans-43"/>
     <use xlink:href="#DejaVuSans-2d" x="69.824219"/>
     <use xlink:href="#DejaVuSans-47" x="109.533203"/>
     <use xlink:href="#DejaVuSans-72" x="187.023438"/>
     <use xlink:href="#DejaVuSans-69" x="228.136719"/>
     <use xlink:href="#DejaVuSans-64" x="255.919922"/>
     <use xlink:href="#DejaVuSans-20" x="319.396484"/>
     <use xlink:href="#DejaVuSans-45" x="351.183594"/>
     <use xlink:href="#DejaVuSans-78" x="414.367188"/>
     <use xlink:href="#DejaVuSans-61" x="473.546875"/>
     <use xlink:href="#DejaVuSans-6d" x="534.826172"/>
     <use xlink:href="#DejaVuSans-70" x="632.238281"/>
     <use xlink:href="#DejaVuSans-6c" x="695.714844"/>
     <use xlink:href="#DejaVuSans-65" x="723.498047"/>
    </g>
   </g>
   <g id="legend_1">
    <g id="patch_7">
     <path d="M 115 138.434375 
L 235.384375 138.434375 
Q 237.384375 138.434375 237.384375 136.434375 
L 237.384375 93.4 
Q 237.384375 91.4 235.384375 91.4 
L 115 91.4 
Q 113 91.4 113 93.4 
L 113 136.434375 
Q 113 138.434375 115 138.434375 
z
" style="fill: #ffffff; opacity: 0.8; stroke: #cccccc; stroke-linejoin: miter"/>
    </g>
    <g id="PathCollection_4">
     <g>
      <use xlink:href="#ma78f723d2d" x="127" y="100.373437" style="fill: #ff0000; stroke: #ff0000"/>
     </g>
    </g>
    <g id="text_33">
     <!-- Mass Coordinates -->
     <g transform="translate(145 102.998437) scale(0.1 -0.1)">
      <defs>
       <path id="DejaVuSans-4d" d="M 628 4666 
L 1569 4666 
L 2759 1491 
L 3956 4666 
L 4897 4666 
L 4897 0 
L 4281 0 
L 4281 4097 
L 3078 897 
L 2444 897 
L 1241 4097 
L 1241 0 
L 628 0 
L 628 4666 
z
" transform="scale(0.015625)"/>
       <path id="DejaVuSans-73" d="M 2834 3397 
L 2834 2853 
Q 2591 2978 2328 3040 
Q 2066 3103 1784 3103 
Q 1356 3103 1142 2972 
Q 928 2841 928 2578 
Q 928 2378 1081 2264 
Q 1234 2150 1697 2047 
L 1894 2003 
Q 2506 1872 2764 1633 
Q 3022 1394 3022 966 
Q 3022 478 2636 193 
Q 2250 -91 1575 -91 
Q 1294 -91 989 -36 
Q 684 19 347 128 
L 347 722 
Q 666 556 975 473 
Q 1284 391 1588 391 
Q 1994 391 2212 530 
Q 2431 669 2431 922 
Q 2431 1156 2273 1281 
Q 2116 1406 1581 1522 
L 1381 1569 
Q 847 1681 609 1914 
Q 372 2147 372 2553 
Q 372 3047 722 3315 
Q 1072 3584 1716 3584 
Q 2034 3584 2315 3537 
Q 2597 3491 2834 3397 
z
" transform="scale(0.015625)"/>
       <path id="DejaVuSans-6f" d="M 1959 3097 
Q 1497 3097 1228 2736 
Q 959 2375 959 1747 
Q 959 1119 1226 758 
Q 1494 397 1959 397 
Q 2419 397 2687 759 
Q 2956 1122 2956 1747 
Q 2956 2369 2687 2733 
Q 2419 3097 1959 3097 
z
M 1959 3584 
Q 2709 3584 3137 3096 
Q 3566 2609 3566 1747 
Q 3566 888 3137 398 
Q 2709 -91 1959 -91 
Q 1206 -91 779 398 
Q 353 888 353 1747 
Q 353 2609 779 3096 
Q 1206 3584 1959 3584 
z
" transform="scale(0.015625)"/>
       <path id="DejaVuSans-6e" d="M 3513 2113 
L 3513 0 
L 2938 0 
L 2938 2094 
Q 2938 2591 2744 2837 
Q 2550 3084 2163 3084 
Q 1697 3084 1428 2787 
Q 1159 2491 1159 1978 
L 1159 0 
L 581 0 
L 581 3500 
L 1159 3500 
L 1159 2956 
Q 1366 3272 1645 3428 
Q 1925 3584 2291 3584 
Q 2894 3584 3203 3211 
Q 3513 2838 3513 2113 
z
" transform="scale(0.015625)"/>
       <path id="DejaVuSans-74" d="M 1172 4494 
L 1172 3500 
L 2356 3500 
L 2356 3053 
L 1172 3053 
L 1172 1153 
Q 1172 725 1289 603 
Q 1406 481 1766 481 
L 2356 481 
L 2356 0 
L 1766 0 
Q 1100 0 847 248 
Q 594 497 594 1153 
L 594 3053 
L 172 3053 
L 172 3500 
L 594 3500 
L 594 4494 
L 1172 4494 
z
" transform="scale(0.015625)"/>
      </defs>
      <use xlink:href="#DejaVuSans-4d"/>
      <use xlink:href="#DejaVuSans-61" x="86.279297"/>
      <use xlink:href="#DejaVuSans-73" x="147.558594"/>
      <use xlink:href="#DejaVuSans-73" x="199.658203"/>
      <use xlink:href="#DejaVuSans-20" x="251.757812"/>
      <use xlink:href="#DejaVuSans-43" x="283.544922"/>
      <use xlink:href="#DejaVuSans-6f" x="353.369141"/>
      <use xlink:href="#DejaVuSans-6f" x="414.550781"/>
      <use xlink:href="#DejaVuSans-72" x="475.732422"/>
      <use xlink:href="#DejaVuSans-64" x="515.095703"/>
      <use xlink:href="#DejaVuSans-69" x="578.572266"/>
      <use xlink:href="#DejaVuSans-6e" x="606.355469"/>
      <use xlink:href="#DejaVuSans-61" x="669.734375"/>
      <use xlink:href="#DejaVuSans-74" x="731.013672"/>
      <use xlink:href="#DejaVuSans-65" x="770.222656"/>
      <use xlink:href="#DejaVuSans-73" x="831.746094"/>
     </g>
    </g>
    <g id="PathCollection_5">
     <g>
      <use xlink:href="#m29d36270a6" x="127" y="115.051562" style="fill: #0000ff; stroke: #0000ff"/>
     </g>
    </g>
    <g id="text_34">
     <!-- u Coordinates -->
     <g transform="translate(145 117.676562) scale(0.1 -0.1)">
      <defs>
       <path id="DejaVuSans-75" d="M 544 1381 
L 544 3500 
L 1119 3500 
L 1119 1403 
Q 1119 906 1312 657 
Q 1506 409 1894 409 
Q 2359 409 2629 706 
Q 2900 1003 2900 1516 
L 2900 3500 
L 3475 3500 
L 3475 0 
L 2900 0 
L 2900 538 
Q 2691 219 2414 64 
Q 2138 -91 1772 -91 
Q 1169 -91 856 284 
Q 544 659 544 1381 
z
M 1991 3584 
L 1991 3584 
z
" transform="scale(0.015625)"/>
      </defs>
      <use xlink:href="#DejaVuSans-75"/>
      <use xlink:href="#DejaVuSans-20" x="63.378906"/>
      <use xlink:href="#DejaVuSans-43" x="95.166016"/>
      <use xlink:href="#DejaVuSans-6f" x="164.990234"/>
      <use xlink:href="#DejaVuSans-6f" x="226.171875"/>
      <use xlink:href="#DejaVuSans-72" x="287.353516"/>
      <use xlink:href="#DejaVuSans-64" x="326.716797"/>
      <use xlink:href="#DejaVuSans-69" x="390.193359"/>
      <use xlink:href="#DejaVuSans-6e" x="417.976562"/>
      <use xlink:href="#DejaVuSans-61" x="481.355469"/>
      <use xlink:href="#DejaVuSans-74" x="542.634766"/>
      <use xlink:href="#DejaVuSans-65" x="581.84375"/>
      <use xlink:href="#DejaVuSans-73" x="643.367188"/>
     </g>
    </g>
    <g id="PathCollection_6">
     <g>
      <use xlink:href="#m131187752b" x="127" y="129.729687" style="fill: #bf00bf; stroke: #bf00bf"/>
     </g>
    </g>
    <g id="text_35">
     <!-- w Coordinates -->
     <g transform="translate(145 132.354687) scale(0.1 -0.1)">
      <defs>
       <path id="DejaVuSans-77" d="M 269 3500 
L 844 3500 
L 1563 769 
L 2278 3500 
L 2956 3500 
L 3675 769 
L 4391 3500 
L 4966 3500 
L 4050 0 
L 3372 0 
L 2619 2869 
L 1863 0 
L 1184 0 
L 269 3500 
z
" transform="scale(0.015625)"/>
      </defs>
      <use xlink:href="#DejaVuSans-77"/>
      <use xlink:href="#DejaVuSans-20" x="81.787109"/>
      <use xlink:href="#DejaVuSans-43" x="113.574219"/>
      <use xlink:href="#DejaVuSans-6f" x="183.398438"/>
      <use xlink:href="#DejaVuSans-6f" x="244.580078"/>
      <use xlink:href="#DejaVuSans-72" x="305.761719"/>
      <use xlink:href="#DejaVuSans-64" x="345.125"/>
      <use xlink:href="#DejaVuSans-69" x="408.601562"/>
      <use xlink:href="#DejaVuSans-6e" x="436.384766"/>
      <use xlink:href="#DejaVuSans-61" x="499.763672"/>
      <use xlink:href="#DejaVuSans-74" x="561.042969"/>
      <use xlink:href="#DejaVuSans-65" x="600.251953"/>
      <use xlink:href="#DejaVuSans-73" x="661.775391"/>
     </g>
    </g>
   </g>
  </g>
 </g>
 <defs>
  <clipPath id="pb1d0761f7a">
   <rect x="108" y="86.4" width="669.6" height="554.4"/>
  </clipPath>
 </defs>
</svg>
